
 
http://www.imdb.com/title/tt1821426/


Plot: A 16-year-old girl takes her parents hostage after they miss her big jump-roping competition. 



Director:
 Benjamin Epps 

Writer:
 Matt K. Turner 

Stars:
 Kristin Chenoweth, Matthew Modine, Olesya Rulin 

Genres:
  Comedy |  Drama 

Country:
 USA 

Language:
 English 



Format                                   : AVI
Format/Info                              : Audio Video Interleave
File size                                : 700 MiB
Duration                                 : 1h 45mn
Overall bit rate mode                    : Variable
Overall bit rate                         : 928 Kbps

Video
ID                                       : 0
Format                                   : MPEG-4 Visual
Format profile                           : Advanced Simple@L5
Format settings, BVOP                    : No
Format settings, QPel                    : No
Format settings, GMC                     : No warppoints
Format settings, Matrix                  : Default (MPEG)
Codec ID                                 : XVID
Codec ID/Hint                            : XviD
Duration                                 : 1h 45mn
Bit rate                                 : 747 Kbps
Width                                    : 624 pixels
Height                                   : 256 pixels
Display aspect ratio                     : 2.40:1
Frame rate                               : 23.976 fps
Color space                              : YUV
Chroma subsampling                       : 4:2:0
Bit depth                                : 8 bits
Scan type                                : Progressive
Compression mode                         : Lossy
Bits/(Pixel*Frame)                       : 0.195
Stream size                              : 564 MiB (80%)
Writing library                          : XviD 1.2.1 (UTC 2008-12-04)

Audio
ID                                       : 1
Format                                   : MPEG Audio
Format version                           : Version 1
Format profile                           : Layer 3
Mode                                     : Joint stereo
Mode extension                           : MS Stereo
Codec ID                                 : 55
Codec ID/Hint                            : MP3
Duration                                 : 1h 45mn
Bit rate mode                            : Variable
Bit rate                                 : 168 Kbps
Nominal bit rate                         : 192 Kbps
Channel(s)                               : 2 channels
Sampling rate                            : 48.0 KHz
Compression mode                         : Lossy
Stream size                              : 127 MiB (18%)
Alignment                                : Aligned on interleaves
Interleave, duration                     : 24 ms (0.58 video frame)
Interleave, preload duration             : 50 ms
Title                                    : VTS_01_1 T80 3_2ch 448Kbps DELAY 0ms
Writing library                          : LAME3.99r
Encoding settings                        : -m j -V 4 -q 2 -lowpass 18.6 --abr 192




    	http://www.shotpix.com/images/32161541956955041443.png
    	http://www.shotpix.com/images/05207316590437822656.png
    	http://www.shotpix.com/images/63192451608551886925.png
    	http://www.shotpix.com/images/97218079639940429236.png
    	http://www.shotpix.com/images/27739353198463122923.png
    	http://www.shotpix.com/images/09716522863564912155.png